<svg width="1103" height="398" viewBox="0 0 1103 398" fill="none" xmlns="http://www.w3.org/2000/svg">
<g clip-path="url(#clip0_3179_34371)">
<path d="M237.206 397.524C230.562 397.524 223.878 397.208 217.352 396.535C186.859 393.529 158.384 383.602 135.089 367.901C106.85 348.838 88.2222 322.458 82.7248 293.666C81.5778 287.655 80.9846 281.485 80.9846 275.355C80.9846 260.642 84.2672 246.285 90.7534 232.68C88.064 230.663 86.0865 228.646 84.7023 226.59C77.1087 227.657 70.0293 228.172 63.6222 228.172C41.9885 228.172 27.9483 222.239 21.9763 210.612C21.8972 210.493 21.8576 210.374 21.7785 210.216C20.4338 208.674 19.2869 206.973 18.3772 205.233C6.19588 181.503 33.5248 143.733 91.5444 103.708C90.1997 73.8483 108.393 44.3046 138.055 29.1174C150.75 22.5917 164.751 19.1509 178.554 19.1509C197.498 19.1509 214.9 25.3602 228.07 36.7505C253.619 28.8406 276.479 24.6879 294.435 24.6879C316.069 24.6879 330.069 30.6203 336.081 42.248C336.16 42.3666 336.199 42.4853 336.279 42.6435C337.623 44.1859 338.77 45.8866 339.68 47.6267C347.511 62.893 339.126 83.9335 315.436 108.613C317.176 108.019 318.956 107.742 320.775 107.742C323.662 107.742 326.431 108.494 329.041 110.036C332.956 112.33 335.527 116.048 336.318 120.477C336.555 121.783 336.595 123.127 336.555 124.472L361.235 121.189H361.749C367.246 121.189 373.337 125.065 373.89 132.224C373.97 133.41 374.128 135.269 370.727 164.378C378.874 167.304 384.015 171.932 385.399 177.587C386.23 178.774 386.981 180.039 387.733 181.305C390.225 182.057 392.479 183.52 394.14 185.576C405.491 199.696 401.575 218.996 394.773 231.217C392.874 234.579 389.631 236.952 385.914 237.743C390.976 249.924 393.507 262.54 393.507 275.315C393.507 283.146 392.558 290.977 390.66 298.649C392.162 299.322 393.428 300.429 394.417 301.853C397.264 306.045 398.411 311.938 386.151 343.697C403.078 344.25 412.372 346.584 413.163 355.087C413.994 363.907 408.101 369.404 350.517 381.348C349.646 381.546 348.776 381.625 347.867 381.625C341.776 381.625 336.476 377.353 335.211 371.421L335.053 370.63C328.725 374.585 322.08 378.184 315.119 381.308C291.548 391.908 264.614 397.484 237.246 397.484L237.206 397.524ZM341.222 147.292C341.657 150.496 341.143 154.886 338.058 161.807C341.183 161.332 344.386 161.056 347.59 161.016L349.37 146.066L341.222 147.292Z" fill="white"/>
<path d="M236.072 162.628C287.069 162.628 332.146 182.452 358.86 212.762C374.938 231.005 384.375 253.065 384.375 276.859C384.375 284.487 383.405 291.94 381.555 299.15C373.159 331.866 346.688 359.438 310.698 375.603C288.769 385.453 263.269 391.089 236.072 391.089C229.609 391.089 223.242 390.771 216.997 390.154C187.109 387.199 159.982 377.393 138.383 362.821C112.592 345.421 94.6278 321.182 89.3632 293.671C88.3131 288.184 87.7684 282.57 87.7684 276.859C87.7685 245.173 104.495 216.584 131.347 195.962C158.196 175.342 195.227 162.628 236.072 162.628Z" fill="#F94498" stroke="#582898" stroke-width="2.86826" stroke-linecap="round" stroke-linejoin="round"/>
<path d="M301.651 271.89L294.105 228.054C312.472 212.841 337.413 211.078 357.783 213.705C373.664 231.724 382.94 253.457 382.94 276.854C382.94 284.36 381.985 291.694 380.165 298.789C348.8 269.73 314.99 268.642 301.651 271.89Z" fill="#FAFAFA"/>
<path d="M187.026 308.556L151.454 270.469C123 270.138 103.337 280.978 90.7655 293.413C95.944 320.474 113.634 344.41 139.179 361.644C150.749 326.753 174.936 311.787 187.026 308.556Z" fill="#FAFAFA"/>
<path d="M271.469 303.538L226.195 316.114C209.727 341.365 211.779 369.902 217.136 388.75C223.335 389.363 229.655 389.679 236.071 389.679C263.072 389.679 288.371 384.083 310.11 374.318C283.934 355.799 273.456 320.211 271.469 303.538Z" fill="#FAFAFA"/>
<ellipse cx="170.054" cy="95.1922" rx="73.5763" ry="64.6704" transform="rotate(-27.1589 170.054 95.1922)" fill="#9077EF" stroke="#582898" stroke-width="2.86826" stroke-linecap="round" stroke-linejoin="round"/>
<ellipse cx="176.099" cy="125.243" rx="170.609" ry="53.237" transform="rotate(-27.1589 176.099 125.243)" fill="#9077EF" stroke="#582898" stroke-width="2.86826" stroke-linecap="round" stroke-linejoin="round"/>
<ellipse cx="179.685" cy="130.618" rx="170.609" ry="53.237" transform="rotate(-27.1589 179.685 130.618)" fill="#573CD0" stroke="#582898" stroke-width="2.86826" stroke-linecap="round" stroke-linejoin="round"/>
<path d="M314.973 205.959L292.161 207.915C288.685 211.391 297.52 243.836 302.372 259.623L338.872 247.022L314.973 205.959Z" fill="#FDCD0A" stroke="#582898" stroke-width="2.86826" stroke-linecap="round" stroke-linejoin="round"/>
<path d="M376.708 182.311C376.708 188.912 363.809 194.263 347.899 194.263C331.988 194.263 319.09 188.912 319.09 182.311C319.09 181.913 319.136 181.52 319.228 181.132C320.654 175.084 332.946 170.358 347.899 170.358C363.702 170.358 376.534 175.637 376.706 182.177C376.707 182.222 376.708 182.266 376.708 182.311Z" fill="#FAFAFA" stroke="#582898" stroke-width="2.86826" stroke-linecap="round" stroke-linejoin="round"/>
<path d="M369.141 181.394C369.141 184.283 365.041 186.816 358.887 188.231C356.578 188.762 353.979 189.136 351.199 189.312C350.013 189.387 348.794 189.426 347.551 189.426C335.627 189.426 325.961 185.83 325.961 181.394C325.961 181.127 325.996 180.863 326.064 180.602C327.133 176.538 336.345 173.362 347.551 173.362C359.394 173.362 369.011 176.91 369.14 181.304C369.141 181.334 369.141 181.364 369.141 181.394Z" fill="#F2CCA6" stroke="#582898" stroke-width="2.86826" stroke-linecap="round" stroke-linejoin="round"/>
<path d="M335.513 141.421L357.291 138.133L351.205 189.308C353.985 189.132 356.584 188.758 358.893 188.227C361.283 168.662 365.024 136.999 364.824 134.298C364.605 131.34 361.902 130.6 360.578 130.6L334.691 134.024L335.513 141.421Z" fill="#582898" stroke="#582898" stroke-width="2.86826" stroke-linecap="round" stroke-linejoin="round"/>
<path d="M385.136 207.751C385.136 230.121 375.881 248.256 347.554 248.256C319.147 248.256 309.973 230.121 309.973 207.751C309.973 197.562 313.463 188.252 319.226 181.133C319.135 181.521 319.088 181.914 319.088 182.311C319.088 188.912 331.985 194.264 347.895 194.264C363.805 194.264 376.702 188.912 376.702 182.311C376.702 182.267 376.702 182.223 376.701 182.178C381.974 189.152 385.136 198.053 385.136 207.751Z" fill="#02A65C" stroke="#582898" stroke-width="2.86826" stroke-linecap="round" stroke-linejoin="round"/>
<path d="M345.331 238.892C337.212 233.75 332.365 237.652 330.956 240.245C326.337 238.782 323.433 239.222 321.715 240.236C327.585 245.324 335.971 248.339 347.554 248.339C358.659 248.339 366.833 245.552 372.668 240.815C368.334 236.955 361.336 239.187 358.185 240.92C354.802 235.643 348.206 237.369 345.331 238.892Z" fill="#F2CCA6" stroke="#582898" stroke-width="2.86826" stroke-linecap="round" stroke-linejoin="round"/>
<path d="M352.342 214.583C354.266 207.101 369.893 196.558 379.717 190.947C382.071 189.602 385.075 189.924 386.775 192.036C396.197 203.745 391.66 219.882 386.651 228.882C385.415 231.103 382.838 232.101 380.366 231.51C368.601 228.693 350.377 222.224 352.342 214.583Z" fill="#FDCD0A" stroke="#582898" stroke-width="2.86826" stroke-linecap="round" stroke-linejoin="round"/>
<path d="M220.172 196.071C263.041 187.32 303.419 207.789 310.359 241.788C311.548 247.613 311.678 253.458 310.862 259.189C309.948 265.608 307.846 271.883 304.714 277.827C295.966 294.431 279.182 308.45 257.803 315.792C253.978 317.106 250.006 318.206 245.907 319.068C245.706 319.11 245.506 319.152 245.305 319.193C224.383 323.464 204.056 320.77 187.918 312.946C187.918 312.946 112.765 282.041 138.439 273.118C128.271 264.71 116.149 248.245 148.999 249.653C151.03 249.716 153.338 249.884 155.801 250.169C162.35 224.868 187.193 202.803 220.172 196.071Z" fill="#FDCD0A" stroke="#582898" stroke-width="2.86826" stroke-linecap="round" stroke-linejoin="round"/>
<path d="M271.323 287.693C249.267 270.138 219.933 265.749 208.023 265.749L195.926 255.621L288.203 208.919C298.192 207.866 304.361 229.018 288.203 255.165C277.627 273.967 274.137 279.534 271.323 287.693Z" fill="#01BEFF" stroke="#582898" stroke-width="2.86826" stroke-linecap="round" stroke-linejoin="round"/>
<circle cx="263.306" cy="258.157" r="12.9835" transform="rotate(-26.3779 263.306 258.157)" fill="#6443F4"/>
<path d="M254.125 254.228C256.405 254.949 259.106 254.891 261.721 254.068C261.921 254.005 262.121 253.939 262.32 253.868C262.484 253.81 262.648 253.75 262.811 253.686C264.735 252.938 267.272 251.654 269.257 250.081L270.273 251.776C269.232 252.603 267.81 253.335 266.786 253.949L266.78 253.94C265.751 254.556 264.723 255.068 263.69 255.479C263.92 255.809 264.161 256.154 264.41 256.516C265.078 257.488 265.776 258.553 266.339 259.653C267.446 261.818 268.166 264.396 266.739 266.784C265.975 268.063 264.508 268.637 263.171 268.492C261.779 268.341 260.461 267.409 260.04 265.675C259.683 264.204 259.939 262.911 260.548 261.631C261.106 260.456 261.99 259.236 262.982 257.87C262.924 257.785 262.867 257.701 262.809 257.616C262.466 257.117 262.111 256.614 261.775 256.127C258.91 256.93 256.067 256.926 253.527 256.134L254.125 254.228ZM264.108 259.628C263.309 260.737 262.699 261.628 262.302 262.464C261.837 263.444 261.7 264.278 261.928 265.217C262.141 266.096 262.741 266.491 263.381 266.561C264.074 266.636 264.751 266.324 265.072 265.788C265.963 264.296 265.635 262.542 264.609 260.537C264.454 260.234 264.286 259.93 264.108 259.628Z" fill="#FDCD0A"/>
<path d="M149.716 53.1645C166.651 35.4041 208.31 60.4976 220.429 80.0107C259.637 79.4445 293.962 95.6973 309.086 123.45C313.148 118.691 318.484 115.207 323.896 118.363C332.727 123.512 323.289 138.682 317.465 145.623C321.083 142.6 329.052 138.995 331.994 148.766C334.936 158.537 311.893 189.771 300.003 204.166L300.002 204.152C284.754 225.053 260.254 242.517 230.116 251.59C197.541 261.397 165.046 259.388 139.889 248.271C120.911 242.003 91.8556 230.528 89.2426 221.848C86.3016 212.078 94.9366 210.683 99.6227 211.207C90.9344 208.634 74.6895 201.197 79.2101 192.028C81.8458 186.682 87.7412 186.386 93.4877 187.855C91.2217 159.064 107.59 129.478 135.729 108.525C129.592 105.67 122.959 98.3958 124.292 92.1765C128.27 73.6263 160.146 85.3533 175.142 92.1766C151.438 81.2277 140.487 61.0864 149.716 53.1645Z" fill="#FDCD0A" stroke="#582898" stroke-width="2.86826" stroke-linecap="round" stroke-linejoin="round"/>
<ellipse cx="162.29" cy="164.066" rx="24.6195" ry="12.4512" transform="rotate(-24.014 162.29 164.066)" fill="#FDA9E5" stroke="#582898" stroke-width="2.86826" stroke-linecap="round" stroke-linejoin="round"/>
<path d="M177.396 112.928L170.297 115.5L173.248 123.645L180.347 121.072L177.396 112.928Z" fill="white"/>
<path d="M173.239 123.633L166.141 126.206L169.092 134.35L176.191 131.778L173.239 123.633Z" fill="white"/>
<path d="M269.61 79.5101L262.512 82.0825L265.463 90.2269L272.562 87.6545L269.61 79.5101Z" fill="white"/>
<path d="M204.6 121.95L207.546 130.08L200.446 132.653L203.398 140.798L196.298 143.371L189.211 145.939L182.111 148.512L175.024 151.08L172.073 142.934L164.973 145.507L162.027 137.377L159.075 129.231L151.988 131.799L154.94 139.945L157.886 148.075L160.838 156.221L167.925 153.653L170.871 161.783L177.971 159.21L185.057 156.642L192.157 154.07L199.244 151.502L206.344 148.929L213.444 146.356L210.498 138.226L217.584 135.657L214.633 127.512L211.686 119.381L208.735 111.236L201.648 113.804L204.6 121.95Z" fill="#01BEFF" stroke="#582898" stroke-width="2.86826" stroke-linecap="round" stroke-linejoin="round"/>
<path d="M296.818 88.5315L299.765 96.662L292.665 99.2348L295.616 107.38L288.53 109.948L281.43 112.521L274.343 115.089L267.243 117.662L264.291 109.517L257.205 112.085L254.258 103.954L251.307 95.8086L244.207 98.3813L247.159 106.527L250.105 114.657L253.057 122.803L260.156 120.23L263.103 128.361L270.189 125.793L277.289 123.22L284.376 120.652L291.476 118.079L298.563 115.511L305.663 112.938L302.716 104.808L309.816 102.235L306.864 94.0893L303.918 85.9588L300.966 77.8133L293.867 80.386L296.818 88.5315Z" fill="#01BEFF" stroke="#582898" stroke-width="2.86826" stroke-linecap="round" stroke-linejoin="round"/>
<path d="M287.975 64.1025L280.875 66.6753L273.788 69.2433L266.689 71.8161L259.602 74.3841L252.502 76.9569L245.415 79.525L238.315 82.0978L231.216 84.6706L224.129 87.2386L217.029 89.8114L209.942 92.3794L202.842 94.9522L195.756 97.5203L188.656 100.093L181.556 102.666L174.469 105.234L167.369 107.807L160.282 110.375L153.183 112.948L146.096 115.516L138.996 118.088L141.948 126.234L144.894 134.364L151.994 131.792L149.048 123.661L156.134 121.093L163.234 118.52L170.321 115.952L177.421 113.379L184.508 110.811L191.607 108.239L198.707 105.666L205.794 103.098L208.74 111.228L215.84 108.655L222.927 106.087L219.981 97.9569L227.08 95.3841L230.027 103.515L237.113 100.947L244.213 98.3738L241.267 90.2433L248.367 87.6705L255.454 85.1024L262.554 82.5296L269.64 79.9616L276.74 77.3888L283.827 74.8208L290.927 72.248L298.027 69.6752L300.973 77.8057L308.06 75.2376L305.113 67.1071L302.162 58.9616L295.075 61.5297L287.975 64.1025Z" fill="#01BEFF" stroke="#582898" stroke-width="2.86826" stroke-linecap="round" stroke-linejoin="round"/>
<path d="M265.454 90.2171L258.355 92.7896L261.307 100.934L268.406 98.3615L265.454 90.2171Z" fill="white"/>
<path d="M191.599 108.211L184.499 110.784L177.412 113.352L180.358 121.482L173.259 124.055L176.21 132.2L169.124 134.768L166.172 126.623L173.259 124.055L170.312 115.924L163.226 118.492L156.126 121.065L149.039 123.633L151.985 131.764L159.072 129.196L162.024 137.341L164.97 145.472L172.07 142.899L175.022 151.044L182.108 148.476L189.208 145.904L196.295 143.336L203.395 140.763L200.443 132.617L207.543 130.045L204.597 121.914L201.645 113.768L208.732 111.2L205.785 103.07L198.699 105.638L191.599 108.211Z" fill="#582898"/>
<path d="M290.913 72.2298L283.814 74.8026L276.727 77.3706L269.627 79.9434L272.573 88.0739L265.487 90.642L268.438 98.7875L261.338 101.36L258.387 93.2148L265.487 90.642L262.54 82.5115L255.44 85.0843L248.354 87.6523L241.254 90.2251L244.2 98.3556L251.3 95.7828L254.252 103.928L257.198 112.059L264.285 109.491L267.236 117.636L274.336 115.063L281.423 112.495L288.523 109.923L295.61 107.355L292.658 99.2091L299.758 96.6363L296.811 88.5058L293.86 80.3603L300.96 77.7875L298.013 69.657L290.913 72.2298Z" fill="#582898"/>
<path d="M228.078 209.325C238.608 212.998 262.974 214.761 276.198 192.428" stroke="#582898" stroke-width="2.86826" stroke-linecap="round" stroke-linejoin="round"/>
<ellipse cx="294.39" cy="129.967" rx="18.5279" ry="9.37036" transform="rotate(-24.014 294.39 129.967)" fill="#FDA9E5" stroke="#582898" stroke-width="2.86826" stroke-linecap="round" stroke-linejoin="round"/>
<path d="M198.398 166.199C181.677 176.624 195.024 188.659 207.536 183.591L297.478 157.373C306.721 147.067 298.317 136.071 285.532 133.665C282.735 124.69 262.037 103.637 232.719 113.409C194.623 126.106 194.586 155.482 198.398 166.199Z" fill="#FF9327" stroke="#582898" stroke-width="2.86826" stroke-linecap="round" stroke-linejoin="round"/>
<path d="M252.609 116.063L256.685 120.782" stroke="#582898" stroke-width="2.86826" stroke-linecap="round" stroke-linejoin="round"/>
<path d="M219.348 124.221L223.209 128.082" stroke="#582898" stroke-width="2.86826" stroke-linecap="round" stroke-linejoin="round"/>
<path d="M297.085 156.524C273.98 127.153 227.328 161.979 206.89 183.064C209.576 187.895 223.62 195.797 258.311 188.757C293.002 181.717 298.615 164.335 297.085 156.524Z" fill="#FF9327" stroke="#582898" stroke-width="2.86826" stroke-linecap="round" stroke-linejoin="round"/>
<path d="M265.735 301.322L307.642 321.151L313.978 314.814L262.669 288.444L245.906 319.079C250.005 318.216 253.977 317.116 257.802 315.803L265.735 301.322Z" fill="#582898" stroke="#582898" stroke-width="2.86826" stroke-linecap="round" stroke-linejoin="round"/>
<path d="M145.144 222.012L179.31 288.321C213.12 307.496 228.931 285.377 232.61 271.92C205.895 228.509 175.724 211.765 154.936 206.946C146.156 204.911 141.015 214 145.144 222.012Z" fill="#FDCD0A"/>
<path d="M179.31 288.321L145.144 222.012C141.015 214 146.156 204.911 154.936 206.946C175.724 211.765 205.895 228.509 232.61 271.92" stroke="#582898" stroke-width="2.86826" stroke-linecap="round" stroke-linejoin="round"/>
<path d="M310.772 303.365L297.063 333.918C295.918 336.471 297.105 339.467 299.689 340.541L362.328 366.602C364.846 367.65 367.774 366.392 368.833 363.879C401.227 287.04 383.822 303.889 368.831 324.97C367.33 327.081 364.476 327.744 362.226 326.46L317.77 301.083C315.221 299.628 311.973 300.687 310.772 303.365Z" fill="#FF9327" stroke="#582898" stroke-width="2.86826" stroke-linecap="round" stroke-linejoin="round"/>
<path d="M322.184 303.931L327.087 307.026L311.354 345.538L305.831 342.957L322.184 303.931Z" fill="#FAFAFA" stroke="#582898" stroke-width="2.86826" stroke-linecap="round" stroke-linejoin="round"/>
<path d="M330.742 309.337L339.481 314.854L323.692 351.306L313.755 346.663L330.742 309.337Z" fill="#573CD0" stroke="#582898" stroke-width="2.86826" stroke-linecap="round" stroke-linejoin="round"/>
<path fill-rule="evenodd" clip-rule="evenodd" d="M343.814 301.313L332.57 256.546L304.703 277.829C307.835 271.885 309.937 265.609 310.851 259.19L338.09 239.579L352.399 302.744L343.814 301.313Z" fill="#582898" stroke="#582898" stroke-width="2.86826" stroke-linecap="round" stroke-linejoin="round"/>
<path d="M364.557 292.974L331.622 299.034C328.87 299.541 327.078 302.218 327.66 304.955L328.627 309.506L329.939 315.678L330.511 318.369L332.872 329.473L341.767 371.317C342.334 373.985 345.031 375.681 347.702 375.127C429.348 358.172 405.597 353.408 379.731 353.035C377.141 352.998 374.975 351.025 374.755 348.445L372.383 320.612L371.477 309.98L371.097 305.525L370.589 299.559L370.408 297.44C370.159 294.516 367.443 292.443 364.557 292.974Z" fill="#FF9327" stroke="#582898" stroke-width="2.86826" stroke-linecap="round" stroke-linejoin="round"/>
<path d="M370.585 299.553L371.094 305.519L329.933 315.673L328.621 309.501L370.585 299.553Z" fill="#FAFAFA" stroke="#582898" stroke-width="2.86826" stroke-linecap="round" stroke-linejoin="round"/>
<path d="M371.472 309.965L372.378 320.598L332.864 329.46L330.504 318.355L371.472 309.965Z" fill="#573CD0" stroke="#582898" stroke-width="2.86826" stroke-linecap="round" stroke-linejoin="round"/>
<path d="M488.061 59.1323C516.669 86.6932 557.29 105.751 602.269 112.799C605.706 113.348 609.17 113.833 612.661 114.254C615.525 114.6 618.409 114.903 621.312 115.164C654.568 118.149 700.211 117.858 740.574 109.75V142.936C725.982 145.495 709.714 146.454 695.039 147.318C689.209 147.661 683.63 147.99 678.509 148.398L678.495 148.227C658.634 149.81 639.558 149.843 621.152 148.338C622.14 154.947 623.186 161.859 624.216 169.082C626.979 188.467 629.515 209.458 629.77 229.986C630.273 270.37 621.956 314.034 583.107 339.048C562.306 352.442 536.239 350.16 517.409 338.127C497.822 325.61 485.075 302.009 491.61 273.115C497.157 248.591 510.509 231.242 529.009 216.677C545.978 203.317 568.141 191.685 592.98 178.679C592.749 176.997 592.515 175.315 592.275 173.635C590.856 163.679 589.283 153.575 587.879 143.848C539.328 134.657 497.055 113.607 465.103 83.0854L488.061 59.1323ZM816.072 164.54C831.629 164.54 845.648 168.13 858.128 175.139C870.607 182.148 880.352 191.893 887.703 204.031C895.054 216.169 898.644 230.016 898.644 245.402V323.188H868.897V296.084C863.295 305.045 855.946 312.256 846.845 317.717C836.587 323.872 824.791 327.12 811.285 327.12V327.291C796.412 327.29 783.077 323.529 771.281 316.178C759.656 308.827 750.425 298.912 743.587 286.603C736.749 274.294 733.5 260.617 733.5 245.573C733.5 230.529 737.09 217.365 744.441 204.885C751.792 192.577 761.537 182.832 774.016 175.481C786.496 168.13 800.515 164.54 816.072 164.54ZM969.769 294.841C969.769 295.646 970.305 296.45 970.842 296.987C971.646 297.791 972.451 297.792 973.256 297.792C974.328 297.791 975.401 297.523 975.937 296.987C976.474 296.45 977.278 294.841 977.278 294.841L1022.06 170.411H1054.78L1005.17 303.423C1002.49 311.2 998.195 317.369 992.832 321.391C987.2 325.145 980.496 327.29 973.256 327.291C966.015 327.291 959.579 325.414 953.947 321.391C948.316 317.1 944.293 311.2 941.344 303.423L892 170.411H924.985L969.769 294.841ZM740.445 195.41H719.179C717.948 195.341 716.717 195.312 715.486 195.312C715.056 195.312 714.629 195.318 714.206 195.33C704.544 195.591 696.772 198.84 691.04 205.228C685.057 211.895 681.979 220.956 681.979 232.239V323.358L681.808 323.529H650.523V231.212C650.523 218.562 652.916 207.279 657.703 197.364C662.49 187.449 669.328 179.584 678.559 173.943C687.791 168.301 699.075 165.395 712.58 165.395C713.126 165.395 713.668 165.401 714.206 165.413V165.395H740.445V195.41ZM1096.6 323.411H1063.46V170.411H1096.6V323.411ZM596.756 213.146C576.691 223.758 561.041 232.521 548.967 242.027C534.803 253.178 526.622 264.57 523.08 280.232C519.768 294.874 525.774 305.184 534.782 310.941C544.548 317.181 556.919 317.537 565.641 311.921C589.911 296.294 597.974 267.79 597.509 230.387C597.438 224.718 597.17 218.96 596.756 213.146ZM816.072 194.115C806.328 194.115 797.609 196.509 789.916 201.295C782.223 206.082 776.068 212.237 771.623 220.101C767.178 227.965 764.785 236.513 764.785 246.086C764.785 255.66 767.007 263.866 771.623 271.901C776.068 279.765 782.223 286.09 789.916 290.706C797.609 295.321 806.328 297.715 816.072 297.715C825.817 297.715 834.535 295.321 842.399 290.706C850.263 286.09 856.247 279.765 860.692 271.901C865.137 264.037 867.359 255.489 867.359 246.086C867.359 236.684 865.137 227.965 860.692 220.101C856.247 212.237 850.092 206.082 842.399 201.295C834.535 196.509 825.817 194.115 816.072 194.115ZM1080.03 107.61C1092.68 107.61 1102.94 117.866 1102.94 130.518C1102.94 143.17 1092.68 153.426 1080.03 153.426C1067.38 153.426 1057.12 143.17 1057.12 130.518C1057.12 117.866 1067.38 107.61 1080.03 107.61Z" fill="white"/>
</g>
<defs>
<clipPath id="clip0_3179_34371">
<rect width="1102.94" height="397.524" fill="white"/>
</clipPath>
</defs>
</svg>
