<svg width="1103" height="398" viewBox="0 0 1103 398" fill="none" xmlns="http://www.w3.org/2000/svg">
<g clip-path="url(#clip0_3179_34370)">
<path d="M240.829 165.917C292.854 165.917 338.84 186.139 366.093 217.061C382.495 235.671 392.122 258.176 392.122 282.449C392.122 290.231 391.132 297.836 389.244 305.191C380.679 338.566 353.675 366.693 316.96 383.184C294.589 393.232 268.575 398.983 240.829 398.983C234.236 398.983 227.741 398.657 221.369 398.028C190.879 395.014 163.206 385.01 141.171 370.144C114.86 352.393 96.5339 327.666 91.1631 299.601C90.0919 294.003 89.5371 288.276 89.5371 282.449C89.5372 250.125 106.601 220.96 133.993 199.923C161.384 178.887 199.161 165.917 240.829 165.917Z" fill="#F94498" stroke="#582898" stroke-width="2.92607" stroke-linecap="round" stroke-linejoin="round"/>
<path d="M307.736 277.389L300.039 232.669C318.776 217.149 344.22 215.351 365.001 218.031C381.202 236.413 390.664 258.584 390.664 282.453C390.664 290.11 389.69 297.592 387.833 304.83C355.836 275.185 321.345 274.075 307.736 277.389Z" fill="#FAFAFA"/>
<path d="M190.802 314.778L154.513 275.923C125.486 275.585 105.426 286.643 92.6016 299.33C97.8844 326.936 115.932 351.354 141.991 368.935C153.794 333.341 178.469 318.074 190.802 314.778Z" fill="#FAFAFA"/>
<path d="M276.943 309.654L230.757 322.483C213.956 348.244 216.05 377.355 221.515 396.583C227.839 397.208 234.286 397.531 240.831 397.531C268.377 397.531 294.186 391.822 316.363 381.861C289.66 362.968 278.971 326.663 276.943 309.654Z" fill="#FAFAFA"/>
<ellipse cx="173.472" cy="97.1094" rx="75.0593" ry="65.9739" transform="rotate(-27.1589 173.472 97.1094)" fill="#9077EF" stroke="#582898" stroke-width="2.92607" stroke-linecap="round" stroke-linejoin="round"/>
<ellipse cx="179.648" cy="127.768" rx="174.048" ry="54.3101" transform="rotate(-27.1589 179.648 127.768)" fill="#9077EF" stroke="#582898" stroke-width="2.92607" stroke-linecap="round" stroke-linejoin="round"/>
<ellipse cx="183.32" cy="133.262" rx="174.048" ry="54.3101" transform="rotate(-27.1589 183.32 133.262)" fill="#573CD0" stroke="#582898" stroke-width="2.92607" stroke-linecap="round" stroke-linejoin="round"/>
<path d="M321.328 210.144L298.056 212.139C294.51 215.685 303.523 248.784 308.473 264.889L345.709 252.034L321.328 210.144Z" fill="#FDCD0A" stroke="#582898" stroke-width="2.92607" stroke-linecap="round" stroke-linejoin="round"/>
<path d="M384.303 186.019C384.303 192.754 371.145 198.213 354.913 198.213C338.682 198.213 325.523 192.754 325.523 186.019C325.523 185.614 325.571 185.213 325.664 184.817C327.12 178.647 339.659 173.825 354.913 173.825C371.035 173.825 384.125 179.211 384.301 185.883C384.302 185.928 384.303 185.974 384.303 186.019Z" fill="#FAFAFA" stroke="#582898" stroke-width="2.92607" stroke-linecap="round" stroke-linejoin="round"/>
<path d="M376.586 185.076C376.586 188.023 372.403 190.607 366.125 192.051C363.769 192.593 361.118 192.974 358.282 193.154C357.072 193.23 355.829 193.27 354.56 193.27C342.396 193.27 332.535 189.602 332.535 185.076C332.535 184.804 332.571 184.534 332.641 184.268C333.731 180.122 343.129 176.882 354.56 176.882C366.643 176.882 376.453 180.501 376.584 184.985C376.585 185.015 376.586 185.046 376.586 185.076Z" fill="#F2CCA6" stroke="#582898" stroke-width="2.92607" stroke-linecap="round" stroke-linejoin="round"/>
<path d="M342.275 144.296L364.493 140.942L358.284 193.148C361.12 192.969 363.771 192.587 366.127 192.046C368.566 172.086 372.382 139.785 372.178 137.03C371.954 134.012 369.197 133.257 367.846 133.257L341.438 136.75L342.275 144.296Z" fill="#582898" stroke="#582898" stroke-width="2.92607" stroke-linecap="round" stroke-linejoin="round"/>
<path d="M392.898 211.96C392.898 234.781 383.455 253.281 354.558 253.281C325.578 253.281 316.219 234.781 316.219 211.96C316.219 201.566 319.78 192.068 325.659 184.806C325.566 185.201 325.518 185.602 325.518 186.008C325.518 192.742 338.675 198.201 354.906 198.201C371.136 198.201 384.294 192.742 384.294 186.008C384.294 185.962 384.293 185.917 384.292 185.872C389.672 192.986 392.898 202.067 392.898 211.96Z" fill="#02A65C" stroke="#582898" stroke-width="2.92607" stroke-linecap="round" stroke-linejoin="round"/>
<path d="M352.295 243.738C344.013 238.493 339.068 242.473 337.631 245.119C332.918 243.627 329.956 244.075 328.203 245.109C334.191 250.3 342.746 253.376 354.563 253.376C365.892 253.376 374.231 250.532 380.183 245.7C375.762 241.762 368.623 244.039 365.408 245.808C361.958 240.424 355.228 242.185 352.295 243.738Z" fill="#F2CCA6" stroke="#582898" stroke-width="2.92607" stroke-linecap="round" stroke-linejoin="round"/>
<path d="M359.446 218.941C361.409 211.309 377.352 200.554 387.374 194.829C389.775 193.457 392.839 193.785 394.573 195.94C404.186 207.885 399.557 224.347 394.448 233.529C393.187 235.794 390.557 236.813 388.036 236.209C376.033 233.336 357.442 226.736 359.446 218.941Z" fill="#FDCD0A" stroke="#582898" stroke-width="2.92607" stroke-linecap="round" stroke-linejoin="round"/>
<path d="M224.605 200.036C268.338 191.109 309.529 211.991 316.61 246.675C317.823 252.618 317.956 258.58 317.123 264.426C316.19 270.974 314.046 277.376 310.851 283.44C301.926 300.379 284.804 314.681 262.994 322.171C259.092 323.511 255.04 324.633 250.858 325.513C250.654 325.556 250.449 325.598 250.244 325.64C228.9 329.997 208.164 327.249 191.701 319.267C191.701 319.267 115.033 287.739 141.225 278.637C130.851 270.058 118.485 253.262 151.997 254.698C154.069 254.763 156.423 254.934 158.937 255.225C165.617 229.414 190.961 206.904 224.605 200.036Z" fill="#FDCD0A" stroke="#582898" stroke-width="2.92607" stroke-linecap="round" stroke-linejoin="round"/>
<path d="M276.785 293.499C254.284 275.59 224.358 271.113 212.208 271.113L199.867 260.78L294.005 213.137C304.194 212.063 310.488 233.642 294.005 260.315C283.215 279.496 279.655 285.176 276.785 293.499Z" fill="#01BEFF" stroke="#582898" stroke-width="2.92607" stroke-linecap="round" stroke-linejoin="round"/>
<circle cx="268.61" cy="263.362" r="13.2452" transform="rotate(-26.3779 268.61 263.362)" fill="#6443F4"/>
<path d="M259.252 259.363C261.578 260.099 264.333 260.039 267.001 259.199C267.205 259.136 267.409 259.068 267.612 258.996C267.779 258.937 267.946 258.875 268.113 258.81C270.076 258.047 272.663 256.737 274.688 255.132L275.725 256.861C274.664 257.705 273.212 258.452 272.167 259.078L272.162 259.069C271.112 259.698 270.064 260.22 269.01 260.64C269.244 260.976 269.49 261.328 269.744 261.697C270.425 262.689 271.137 263.775 271.712 264.897C272.841 267.106 273.575 269.736 272.12 272.172C271.341 273.477 269.844 274.063 268.48 273.914C267.06 273.76 265.715 272.809 265.286 271.041C264.922 269.54 265.183 268.221 265.804 266.915C266.373 265.716 267.275 264.471 268.287 263.078C268.228 262.992 268.17 262.905 268.111 262.819C267.761 262.31 267.398 261.797 267.056 261.3C264.133 262.119 261.233 262.115 258.642 261.308L259.252 259.363ZM269.436 264.871C268.621 266.003 267.999 266.912 267.594 267.765C267.119 268.765 266.979 269.615 267.212 270.574C267.429 271.47 268.041 271.873 268.694 271.944C269.402 272.021 270.092 271.703 270.419 271.156C271.328 269.634 270.994 267.845 269.947 265.799C269.789 265.489 269.617 265.18 269.436 264.871Z" fill="#FDCD0A"/>
<path d="M152.742 54.2283C170.018 36.1099 212.517 61.7091 224.881 81.6156C264.879 81.038 299.895 97.6183 315.324 125.931C319.468 121.075 324.912 117.522 330.433 120.741C339.442 125.994 329.813 141.469 323.872 148.551C327.563 145.466 335.693 141.789 338.694 151.756C341.696 161.725 318.188 193.588 306.059 208.273L306.057 208.259C290.502 229.581 265.508 247.397 234.763 256.653C201.53 266.658 168.381 264.609 142.717 253.268C123.356 246.873 93.7153 235.166 91.0496 226.312C88.0493 216.344 96.8584 214.922 101.639 215.456C92.7755 212.832 76.2032 205.244 80.8149 195.891C83.5037 190.437 89.518 190.135 95.3802 191.634C93.0686 162.262 109.767 132.08 138.473 110.705C132.212 107.792 125.445 100.371 126.806 94.0266C130.863 75.1025 163.382 87.0659 178.681 94.0267C154.499 82.8572 143.326 62.3098 152.742 54.2283Z" fill="#FDCD0A" stroke="#582898" stroke-width="2.92607" stroke-linecap="round" stroke-linejoin="round"/>
<ellipse cx="165.549" cy="167.371" rx="25.1158" ry="12.7022" transform="rotate(-24.014 165.549 167.371)" fill="#FDA9E5" stroke="#582898" stroke-width="2.92607" stroke-linecap="round" stroke-linejoin="round"/>
<path d="M180.961 115.197L173.719 117.822L176.73 126.13L183.972 123.506L180.961 115.197Z" fill="white"/>
<path d="M176.734 126.111L169.492 128.736L172.503 137.044L179.745 134.42L176.734 126.111Z" fill="white"/>
<path d="M275.047 81.0976L267.805 83.7219L270.815 92.0305L278.057 89.4062L275.047 81.0976Z" fill="white"/>
<path d="M208.723 124.377L211.728 132.671L204.485 135.296L207.497 143.605L200.254 146.23L193.024 148.85L185.781 151.474L178.552 154.094L175.54 145.785L168.297 148.409L165.292 140.115L162.281 131.805L155.051 134.425L158.062 142.735L161.068 151.029L164.079 159.339L171.309 156.719L174.314 165.013L181.557 162.389L188.787 159.769L196.03 157.144L203.259 154.524L210.502 151.9L217.745 149.275L214.74 140.981L221.969 138.361L218.958 130.051L215.952 121.757L212.941 113.447L205.712 116.067L208.723 124.377Z" fill="#01BEFF" stroke="#582898" stroke-width="2.92607" stroke-linecap="round" stroke-linejoin="round"/>
<path d="M302.797 90.2867L305.803 98.5811L298.56 101.206L301.571 109.515L294.341 112.135L287.098 114.76L279.869 117.38L272.626 120.004L269.615 111.695L262.385 114.315L259.379 106.02L256.368 97.7104L249.125 100.335L252.136 108.645L255.142 116.939L258.153 125.249L265.396 122.624L268.402 130.919L275.631 128.299L282.874 125.674L290.104 123.054L297.347 120.43L304.577 117.81L311.819 115.185L308.814 106.891L316.057 104.266L313.046 95.9565L310.04 87.6621L307.029 79.3524L299.786 81.9771L302.797 90.2867Z" fill="#01BEFF" stroke="#582898" stroke-width="2.92607" stroke-linecap="round" stroke-linejoin="round"/>
<path d="M293.779 65.3664L286.536 67.991L279.306 70.6108L272.063 73.2355L264.834 75.8553L257.591 78.4799L250.361 81.0997L243.118 83.7244L235.875 86.349L228.646 88.9688L221.403 91.5935L214.173 94.2133L206.93 96.8379L199.701 99.4578L192.458 102.082L185.215 104.707L177.985 107.327L170.742 109.952L163.513 112.571L156.27 115.196L149.04 117.816L141.797 120.44L144.808 128.75L147.814 137.044L155.057 134.42L152.051 126.125L159.281 123.506L166.524 120.881L173.753 118.261L180.996 115.637L188.226 113.017L195.469 110.392L202.712 107.767L209.941 105.148L212.947 113.442L220.19 110.817L227.42 108.198L224.414 99.9032L231.657 97.2785L234.663 105.573L241.892 102.953L249.135 100.328L246.129 92.0341L253.372 89.4094L260.602 86.7896L267.845 84.165L275.075 81.5451L282.318 78.9205L289.547 76.3007L296.79 73.676L304.033 71.0514L307.039 79.3458L314.268 76.726L311.263 68.4316L308.252 60.1219L301.022 62.7417L293.779 65.3664Z" fill="#01BEFF" stroke="#582898" stroke-width="2.92607" stroke-linecap="round" stroke-linejoin="round"/>
<path d="M270.804 92.0215L263.562 94.6458L266.573 102.954L273.815 100.33L270.804 92.0215Z" fill="white"/>
<path d="M195.465 110.391L188.222 113.016L180.992 115.635L183.998 123.93L176.755 126.554L179.766 134.864L172.536 137.484L169.525 129.174L176.755 126.554L173.749 118.26L166.519 120.88L159.276 123.504L152.047 126.124L155.053 134.419L162.282 131.799L165.293 140.109L168.299 148.403L175.542 145.778L178.553 154.088L185.783 151.468L193.026 148.843L200.255 146.224L207.498 143.599L204.487 135.289L211.73 132.665L208.724 124.37L205.713 116.061L212.943 113.441L209.937 105.146L202.708 107.766L195.465 110.391Z" fill="#582898"/>
<path d="M296.786 73.6764L289.543 76.301L282.313 78.9209L275.07 81.5455L278.076 89.8399L270.846 92.4597L273.857 100.769L266.614 103.394L263.603 95.0843L270.846 92.4597L267.841 84.1653L260.598 86.79L253.368 89.4098L246.125 92.0344L249.131 100.329L256.374 97.7042L259.385 106.014L262.39 114.308L269.62 111.688L272.631 119.998L279.874 117.373L287.104 114.754L294.347 112.129L301.576 109.509L298.565 101.199L305.808 98.5749L302.803 90.2805L299.791 81.9708L307.034 79.3461L304.029 71.0518L296.786 73.6764Z" fill="#582898"/>
<path d="M232.664 213.533C243.406 217.281 268.263 219.079 281.754 196.296" stroke="#582898" stroke-width="2.92607" stroke-linecap="round" stroke-linejoin="round"/>
<ellipse cx="300.32" cy="132.586" rx="18.9013" ry="9.55923" transform="rotate(-24.014 300.32 132.586)" fill="#FDA9E5" stroke="#582898" stroke-width="2.92607" stroke-linecap="round" stroke-linejoin="round"/>
<path d="M202.392 169.542C185.334 180.177 198.949 192.455 211.714 187.285L303.468 160.538C312.897 150.025 304.325 138.807 291.282 136.353C288.429 127.197 267.313 105.72 237.404 115.688C198.541 128.641 198.503 158.609 202.392 169.542Z" fill="#FF9327" stroke="#582898" stroke-width="2.92607" stroke-linecap="round" stroke-linejoin="round"/>
<path d="M257.695 118.402L261.853 123.215" stroke="#582898" stroke-width="2.92607" stroke-linecap="round" stroke-linejoin="round"/>
<path d="M223.781 126.716L227.72 130.655" stroke="#582898" stroke-width="2.92607" stroke-linecap="round" stroke-linejoin="round"/>
<path d="M303.067 159.675C279.496 129.712 231.904 165.241 211.054 186.75C213.794 191.679 228.121 199.74 263.511 192.558C298.901 185.376 304.627 167.644 303.067 159.675Z" fill="#FF9327" stroke="#582898" stroke-width="2.92607" stroke-linecap="round" stroke-linejoin="round"/>
<path d="M271.088 307.389L313.839 327.618L320.304 321.153L267.96 294.251L250.859 325.504C255.041 324.624 259.093 323.502 262.995 322.162L271.088 307.389Z" fill="#582898" stroke="#582898" stroke-width="2.92607" stroke-linecap="round" stroke-linejoin="round"/>
<path d="M148.06 226.496L182.915 294.141C217.406 313.703 233.535 291.138 237.289 277.411C210.036 233.124 179.256 216.043 158.05 211.127C149.093 209.05 143.848 218.323 148.06 226.496Z" fill="#FDCD0A"/>
<path d="M182.915 294.141L148.06 226.496C143.848 218.323 149.093 209.05 158.05 211.127C179.256 216.043 210.036 233.124 237.289 277.411" stroke="#582898" stroke-width="2.92607" stroke-linecap="round" stroke-linejoin="round"/>
<path d="M317.031 309.495L303.046 340.664C301.878 343.269 303.089 346.324 305.725 347.421L369.627 374.007C372.196 375.076 375.182 373.793 376.263 371.229C409.31 292.842 391.554 310.029 376.26 331.536C374.729 333.689 371.818 334.366 369.523 333.056L324.171 307.167C321.571 305.683 318.257 306.763 317.031 309.495Z" fill="#FF9327" stroke="#582898" stroke-width="2.92607" stroke-linecap="round" stroke-linejoin="round"/>
<path d="M328.668 310.061L333.671 313.219L317.62 352.507L311.986 349.874L328.668 310.061Z" fill="#FAFAFA" stroke="#582898" stroke-width="2.92607" stroke-linecap="round" stroke-linejoin="round"/>
<path d="M337.403 315.578L346.317 321.205L330.211 358.392L320.073 353.655L337.403 315.578Z" fill="#573CD0" stroke="#582898" stroke-width="2.92607" stroke-linecap="round" stroke-linejoin="round"/>
<path fill-rule="evenodd" clip-rule="evenodd" d="M350.747 307.396L339.277 261.726L310.848 283.439C314.043 277.375 316.187 270.973 317.12 264.424L344.907 244.417L359.505 308.856L350.747 307.396Z" fill="#582898" stroke="#582898" stroke-width="2.92607" stroke-linecap="round" stroke-linejoin="round"/>
<path d="M371.904 298.872L338.305 305.054C335.498 305.571 333.67 308.302 334.263 311.095L335.25 315.737L336.589 322.033L337.172 324.778L339.58 336.107L348.655 378.794C349.233 381.516 351.985 383.246 354.709 382.68C438.001 365.384 413.771 360.524 387.384 360.144C384.742 360.106 382.532 358.093 382.308 355.46L379.888 327.066L378.964 316.22L378.576 311.675L378.058 305.589L377.874 303.428C377.619 300.444 374.849 298.33 371.904 298.872Z" fill="#FF9327" stroke="#582898" stroke-width="2.92607" stroke-linecap="round" stroke-linejoin="round"/>
<path d="M378.06 305.595L378.579 311.681L336.588 322.039L335.25 315.743L378.06 305.595Z" fill="#FAFAFA" stroke="#582898" stroke-width="2.92607" stroke-linecap="round" stroke-linejoin="round"/>
<path d="M378.966 316.224L379.89 327.07L339.58 336.111L337.172 324.782L378.966 316.224Z" fill="#573CD0" stroke="#582898" stroke-width="2.92607" stroke-linecap="round" stroke-linejoin="round"/>
<path d="M488.062 59.137C516.669 86.6978 557.29 105.756 602.27 112.804C605.706 113.352 609.17 113.837 612.661 114.259C615.526 114.605 618.409 114.908 621.312 115.168C654.568 118.153 700.211 117.863 740.574 109.755V142.941C725.982 145.5 709.714 146.458 695.039 147.323C689.209 147.666 683.631 147.994 678.509 148.403L678.495 148.232C658.634 149.815 639.558 149.847 621.152 148.343C622.14 154.952 623.186 161.863 624.216 169.086C626.979 188.472 629.515 209.463 629.771 229.99C630.273 270.374 621.956 314.039 583.107 339.053C562.306 352.446 536.239 350.165 517.409 338.132C497.822 325.615 485.075 302.014 491.61 273.119C497.157 248.595 510.509 231.246 529.009 216.682C545.978 203.322 568.141 191.689 592.98 178.684C592.749 177.001 592.515 175.32 592.275 173.64C590.856 163.683 589.283 153.58 587.879 143.853C539.329 134.662 497.055 113.612 465.104 83.0901L488.062 59.137ZM816.072 164.544C831.629 164.544 845.648 168.135 858.128 175.144C870.608 182.153 880.352 191.898 887.703 204.035C895.054 216.173 898.644 230.021 898.645 245.406V323.193H868.897V296.089C863.296 305.049 855.946 312.261 846.845 317.722C836.587 323.876 824.791 327.124 811.285 327.124V327.295C796.412 327.295 783.077 323.534 771.281 316.183C759.656 308.832 750.425 298.916 743.587 286.608C736.749 274.299 733.5 260.622 733.5 245.577C733.5 230.533 737.09 217.37 744.441 204.89C751.793 192.581 761.537 182.837 774.017 175.486C786.496 168.134 800.515 164.544 816.072 164.544ZM969.77 294.846C969.77 295.65 970.306 296.455 970.842 296.991C971.646 297.796 972.451 297.796 973.256 297.796C974.328 297.796 975.401 297.528 975.938 296.991C976.474 296.455 977.278 294.846 977.278 294.846L1022.06 170.415H1054.78L1005.17 303.428C1002.49 311.205 998.195 317.373 992.832 321.396C987.201 325.15 980.496 327.295 973.256 327.295C966.015 327.295 959.579 325.418 953.947 321.396C948.316 317.105 944.294 311.205 941.344 303.428L892 170.415H924.985L969.77 294.846ZM740.445 195.414H719.179C717.948 195.345 716.717 195.317 715.486 195.317C715.056 195.317 714.629 195.323 714.206 195.334C704.544 195.596 696.772 198.845 691.04 205.233C685.057 211.9 681.979 220.96 681.979 232.243V323.363L681.809 323.533H650.523V231.217C650.523 218.567 652.917 207.284 657.703 197.368C662.49 187.453 669.328 179.589 678.56 173.948C687.791 168.306 699.075 165.4 712.58 165.4C713.126 165.4 713.668 165.406 714.206 165.417V165.4H740.445V195.414ZM1096.6 323.415H1063.46V170.415H1096.6V323.415ZM596.756 213.151C576.691 223.762 561.041 232.525 548.967 242.031C534.803 253.183 526.623 264.574 523.08 280.237C519.768 294.879 525.774 305.189 534.782 310.946C544.548 317.186 556.919 317.542 565.641 311.926C589.911 296.299 597.974 267.794 597.509 230.392C597.438 224.723 597.171 218.964 596.756 213.151ZM816.072 194.119C806.328 194.119 797.609 196.513 789.916 201.3C782.223 206.087 776.068 212.242 771.623 220.106C767.178 227.97 764.785 236.518 764.785 246.091C764.785 255.665 767.007 263.871 771.623 271.906C776.068 279.77 782.223 286.094 789.916 290.71C797.609 295.326 806.328 297.72 816.072 297.72C825.817 297.72 834.535 295.326 842.399 290.71C850.263 286.094 856.248 279.77 860.692 271.906C865.137 264.042 867.359 255.494 867.359 246.091C867.359 236.689 865.137 227.97 860.692 220.106C856.248 212.242 850.092 206.087 842.399 201.3C834.535 196.513 825.817 194.119 816.072 194.119ZM1080.03 107.615C1092.69 107.615 1102.94 117.871 1102.94 130.523C1102.94 143.175 1092.69 153.431 1080.03 153.431C1067.38 153.431 1057.12 143.175 1057.12 130.523C1057.13 117.871 1067.38 107.615 1080.03 107.615Z" fill="#573CD0"/>
</g>
<defs>
<clipPath id="clip0_3179_34370">
<rect width="1102.94" height="397.531" fill="white"/>
</clipPath>
</defs>
</svg>
